<svg width="40" height="40" viewBox="0 0 40 40" fill="none" xmlns="http://www.w3.org/2000/svg">
<path d="M38.5 20C38.5 30.2173 30.2173 38.5 20 38.5C9.78273 38.5 1.5 30.2173 1.5 20C1.5 9.78273 9.78273 1.5 20 1.5C30.2173 1.5 38.5 9.78273 38.5 20Z" fill="#0000FF" stroke="#0303D1" stroke-width="3"/>
<path d="M20.4588 18.3281H18.5923C18.5582 18.0866 18.4886 17.8722 18.3835 17.6847C18.2784 17.4943 18.1435 17.3324 17.9787 17.1989C17.8139 17.0653 17.6236 16.9631 17.4077 16.892C17.1946 16.821 16.9631 16.7855 16.7131 16.7855C16.2614 16.7855 15.8679 16.8977 15.5327 17.1222C15.1974 17.3437 14.9375 17.6676 14.7528 18.0938C14.5682 18.517 14.4759 19.0312 14.4759 19.6364C14.4759 20.2585 14.5682 20.7812 14.7528 21.2045C14.9403 21.6278 15.2017 21.9474 15.5369 22.1634C15.8722 22.3793 16.2599 22.4872 16.7003 22.4872C16.9474 22.4872 17.1761 22.4545 17.3864 22.3892C17.5994 22.3239 17.7884 22.2287 17.9531 22.1037C18.1179 21.9759 18.2543 21.821 18.3622 21.6392C18.473 21.4574 18.5497 21.25 18.5923 21.017L20.4588 21.0256C20.4105 21.4261 20.2898 21.8125 20.0966 22.1847C19.9063 22.554 19.6491 22.8849 19.3253 23.1776C19.0043 23.4673 18.6207 23.6974 18.1747 23.8679C17.7315 24.0355 17.2301 24.1193 16.6705 24.1193C15.892 24.1193 15.196 23.9432 14.5824 23.5909C13.9716 23.2386 13.4886 22.7287 13.1335 22.0611C12.7812 21.3935 12.6051 20.5852 12.6051 19.6364C12.6051 18.6847 12.7841 17.875 13.142 17.2074C13.5 16.5398 13.9858 16.0312 14.5994 15.6818C15.2131 15.3295 15.9034 15.1534 16.6705 15.1534C17.1761 15.1534 17.6449 15.2244 18.0767 15.3665C18.5114 15.5085 18.8963 15.7159 19.2315 15.9886C19.5668 16.2585 19.8395 16.5895 20.0497 16.9815C20.2628 17.3736 20.3991 17.8224 20.4588 18.3281ZM21.782 24V15.2727H27.6626V16.794H23.6271V18.8736H27.3601V20.3949H23.6271V22.4787H27.6797V24H21.782Z" fill="#0303D1"/>
</svg>
